<?xml version="1.0"?>
<svg xmlns="http://www.w3.org/2000/svg" xmlns:xlink="http://www.w3.org/1999/xlink" xmlns:svgjs="http://svgjs.com/svgjs" version="1.1" width="512" height="512" x="0" y="0" viewBox="0 0 512 512" style="enable-background:new 0 0 512 512" xml:space="preserve" class=""><g>
<g xmlns="http://www.w3.org/2000/svg">
	<path d="M217.279,333.407c-24.767-25.024-59.834-27.216-77.505-26.493c-0.857,17.716,1.032,52.971,25.636,77.83   c24.903,25.161,58.421,25.134,74.417,23.354c0.642-5.346,1.113-12.653,0.537-20.915   C238.849,365.446,231.081,347.352,217.279,333.407z" fill="#01a85a" data-original="#000000" style="" class=""/>
	<path d="M294.721,333.407c-13.802,13.945-21.569,32.039-23.085,53.776c-0.575,8.242-0.106,15.534,0.534,20.882   c5.347,0.583,12.645,0.979,20.886,0.317c21.721-1.74,39.732-9.693,53.534-23.639c24.768-25.024,26.603-60.112,25.691-77.774   C354.566,306.287,319.324,308.546,294.721,333.407z" fill="#01a85a" data-original="#000000" style="" class=""/>
	<path d="M290.951,297.892c-5.454-27.396-24.154-47.899-35.33-58.052c-10.766,9.984-29.026,31.543-34.765,57.921   c6.146,4.052,12.117,8.855,17.745,14.542c7.266,7.342,12.958,15.134,17.398,23.058c4.44-7.923,10.132-15.716,17.398-23.058   C278.968,306.676,284.873,301.917,290.951,297.892z" fill="#01a85a" data-original="#000000" style="" class=""/>
	<path d="M457.353,243.766h-24.951C431.293,147.429,352.594,69.395,256,69.395S80.707,147.429,79.598,243.766H54.647   C24.515,243.766,0,268.282,0,298.415v89.543c0,30.133,24.515,54.647,54.647,54.647h54.925V245.824   c0-80.741,65.688-146.429,146.428-146.429s146.428,65.688,146.428,146.429v196.781h54.925c30.133,0,54.647-24.515,54.647-54.647   v-89.543C512,268.282,487.485,243.766,457.353,243.766z" fill="#01a85a" data-original="#000000" style="" class=""/>
</g>















</g></svg>
