<?xml version="1.0"?>
<svg xmlns="http://www.w3.org/2000/svg" xmlns:xlink="http://www.w3.org/1999/xlink" xmlns:svgjs="http://svgjs.com/svgjs" version="1.1" width="512" height="512" x="0" y="0" viewBox="0 0 60 60" style="enable-background:new 0 0 512 512" xml:space="preserve" class=""><g><g xmlns="http://www.w3.org/2000/svg" id="047---Karaoke"><path id="Shape" d="m59.71 58.29-2.19-2.19c-1.3855822-1.3985254-3.5827844-1.5809186-5.18-.43l-2.8 1.95c-.8645205.6382886-2.0789111.4793138-2.75-.36l-.48-.63c-.3439706-.4161566-.5050756-.9537038-.446693-1.4904473s.3312928-1.027082.756693-1.3595527c1.2705697-1.0250722 2.0685897-2.5236164 2.21-4.15.13-2.27-1.25-3.46-2.36-4.57.8105408-1.3993675.6628538-3.1556452-.37-4.4l-18.73-22.87-9.58 9.58 22.87 18.73c1.2396271 1.0443494 3.003374 1.1926645 4.4.37.93.93 1.85 1.66 1.77 3.05-.1057118 1.0568116-.6273804 2.0281944-1.45 2.7-.837433.6594204-1.377043 1.6258049-1.4990776 2.6846896s.1836006 2.1226823.8490776 2.9553104l.49.63c.7631272.9594491 1.924084 1.5159712 3.15 1.51 1.52 0 2-.49 5.13-2.7.8017554-.5799557 1.9070924-.4864272 2.6.22l2.19 2.19c.3921222.3921222 1.0278778.3921222 1.42 0s.3921222-1.0278778 0-1.42zm-31.71-29.05c-1.2281909-.421487-2.3798305-1.0395224-3.41-1.83-.6795536-.7935206-.6338645-1.9763883.1048736-2.7151264s1.9216058-.7844272 2.7151264-.1048736c.7904776 1.0301695 1.408513 2.1818091 1.83 3.41.1022379.3505298.0052964.7289172-.2528932.9871068s-.636577.3551311-.9871068.2528932z" fill="#01a85a" data-original="#000000" style="" class=""/><path id="Shape" d="m12.54 12c6.59-6.59 4.79-7.82 5.57-8.7-4.2080877-3.49623125-10.39555564-3.1753669-14.21943502.73737913-3.82387939 3.91274603-4.0025333 10.10595167-.41056498 14.23262087.92-.85 1.59 1.25 9.06-6.27z" fill="#01a85a" data-original="#000000" style="" class=""/><path id="Shape" d="m14 13.46c-3.88 3.87-6.65 5.9-8.78 6.41 1.66858416 1.2751784 3.68295527 2.0174986 5.78 2.13l4 4c.1877666.1893127.4433625.2957983.71.2957983s.5222334-.1064856.71-.2957983l9.58-9.58c.1893127-.1877666.2957983-.4433625.2957983-.71s-.1064856-.5222334-.2957983-.71l-4-4c-.0987492-2.18375572-.878536-4.28183661-2.23-6-.45 2.26-2.28 4.93-5.77 8.46z" fill="#01a85a" data-original="#000000" style="" class=""/><path id="Shape" d="m39.09 18.9c1.1897046.277947 2.4412016-.0030579 3.3978767-.7629424s1.5136164-1.9153173 1.5121233-3.1370576v-8.28l3.24-.81c.4571833-.11281553.7737136-.52930282.76-1v-2.91c.0091729-.31257407-.1284007-.61144303-.3718172-.80774664s-.564647-.267438-.8681828-.19225336l-6 1.5c-.4571833.11281553-.7737136.52930282-.76 1v6.5c.0071559.4921797-.3449242.9163726-.83 1-1.0734247.2485144-2.0016498.9186122-2.575431 1.8592371s-.7448232 2.0726043-.474569 3.1407629c.3716961 1.4449066 1.5166405 2.5628658 2.97 2.9z" fill="#01a85a" data-original="#000000" style="" class=""/><path id="Shape" d="m47.12 28c.4921138 1.9643951 2.374687 3.251093 4.3836733 2.9961455 2.0089862-.2549475 3.5104875-1.9710965 3.4963267-3.9961455v-8.28l3.24-.81c.4571833-.1128155.7737136-.5293028.76-1v-2.91c.0091729-.3125741-.1284007-.611443-.3718172-.8077466-.2434165-.1963037-.564647-.267438-.8681828-.1922534l-6 1.5c-.4571833.1128155-.7737136.5293028-.76 1v6.5c.0071559.4921797-.3449242.9163726-.83 1-1.0734247.2485144-2.0016498.9186122-2.575431 1.8592371s-.7448232 2.0726043-.474569 3.1407629z" fill="#01a85a" data-original="#000000" style="" class=""/><path id="Shape" d="m19.81 35-14 2.83c-.48109253.0879673-.82797625.5109963-.82 1v11.17c.00715592.4921797-.34492416.9163726-.83 1-1.06419724.259668-1.98023155.9343937-2.54382008 1.8737079-.56358854.9393143-.72785977 2.0650978-.45617992 3.1262921.54883569 1.8920229 2.39355365 3.1027346 4.34773932 2.8534763 1.95418567-.2492584 3.43592952-1.8842637 3.49226068-3.8534763v-11.69c-.00797625-.4890037.33890747-.9120327.82-1l6-1.31c.2947072-.0539695.5980858.0270434.8266555.2207465.2285697.1937032.3582455.4796855.3533445.7792535v4c.0071559.4921797-.3449242.9163726-.83 1-1.0734247.2485144-2.0016498.9186122-2.575431 1.8592371s-.7448232 2.0726043-.474569 3.1407629c.4921138 1.9643951 2.374687 3.251093 4.3836733 2.9961455 2.0089862-.2549475 3.5104875-1.9710965 3.4963267-3.9961455v-15c.005506-.3016771-.1254947-.5897121-.3564905-.7838263-.2309959-.1941141-.5372882-.2735521-.8335095-.2161737z" fill="#01a85a" data-original="#000000" style="" class=""/></g></g></svg>
